# xmcd CD database file
#
# Track frame offsets:
#	150
#	16952
#	27573
#	44533
#	47665
#	53951
#	60604
#	89944
#	113939
#	129946
#	151392
#	168886
#	185240
#	197937
#	214661
#	227301
#	246278
#
# Disc length: 3535 seconds
#
# Revision: 0
# Processed by: cddbd v1.5.2PL0 Copyright (c) Steve Scherf et al.
# Submitted via: CDex 1.70beta2
#
DISCID=f30dcd11
DTITLE=Chet Atkins and Friends - Certified Guitar Player
DYEAR=2010
DGENRE=Country
TTITLE0=Introduction "Deep Thumb Blues"
TTITLE1=I'll See You In My Dreams
TTITLE2=Walk of Life
TTITLE3=All I Have To Do Is Dream
TTITLE4=Bye Bye Love
TTITLE5=Wake Up Little Susie
TTITLE6=Why Worry
TTITLE7=Precious Memories
TTITLE8=Waltz For The Lonely
TTITLE9=I Keep Forgettin
TTITLE10=Rose In Paradise
TTITLE11=A Good Hearted Woman
TTITLE12=Island In The Sea
TTITLE13=Sunrise
TTITLE14=Imagine
TTITLE15=I Still Can't Say Goodbye
TTITLE16=Corrine, Corrina
EXTD=YEAR: 2010
EXTT0=
EXTT1=
EXTT2=
EXTT3=
EXTT4=
EXTT5=
EXTT6=
EXTT7=
EXTT8=
EXTT9=
EXTT10=
EXTT11=
EXTT12=
EXTT13=
EXTT14=
EXTT15=
EXTT16=
PLAYORDER=
